<svg xmlns="http://www.w3.org/2000/svg" width="48" height="48"><g transform="translate(0 -1004.362)"><circle cx="24" cy="1028.362" r="24" fill="#1d67b1"/><g transform="translate(8 -8.998)"><circle cx="16" cy="1037.36" r="14" fill="#f8b84e"/><circle cx="16" cy="1037.36" r="10.887" fill="#fcd062"/><path fill="#f8b84e" d="M15 1030.362h2v14h-2z"/><path fill="#f8b84e" d="M15 1032.361c-1.07 0-2.064.573-2.6 1.5a3.004 3.004 0 0 0 0 3c.536.927 1.53 1.5 2.6 1.5v-2a.998.998 0 0 1-.867-1.5c.18-.31.508-.5.867-.5zm2 4c1.07 0 2.063.573 2.598 1.5a3.004 3.004 0 0 1 0 3 3.003 3.003 0 0 1-2.598 1.5v-2c.359 0 .686-.189.865-.5.18-.31.18-.689 0-1a.995.995 0 0 0-.865-.5z" color="#000" font-family="sans-serif" font-weight="400" overflow="visible" style="line-height:normal;text-indent:0;text-align:start;text-decoration-line:none;text-transform:none"/><path fill="#f8b84e" d="M20 1032.362v1.999h-5v-1.999zm-3 8v2h-5v-2z"/></g></g></svg>