<svg xmlns="http://www.w3.org/2000/svg"  fill="#fff" width="64" height="64" version="1.0"><path d="m39.385 47.987-.876-1.107a9.41 9.41 0 0 0 3.475-7.012 3.026 3.026 0 0 0 1.358-4.738 3.018 3.018 0 0 0-1.084-.845c1.402-1.457 2.127-4.18 1.544-6.356-.497-1.852-1.879-2.915-3.794-2.915l-14.137.011c-1.761 0-2.737.699-2.905 2.08-1.105.213-1.966 1.149-1.966 2.233v3.709c0 .91.413 1.643 1.086 2.059-.5.422-.867.996-1.014 1.655a3.029 3.029 0 0 0 1.961 3.505 9.345 9.345 0 0 0 3.195 6.388l-.794 1.323c-3.38 1.692-5.934 3.414-7.379 6.212a.498.498 0 0 0 .015.485c1.547 2.602 6.345 4.691 11.939 5.2.875.079 1.739.118 2.585.118 5.876 0 10.948-1.887 13.879-5.245a.5.5 0 0 0 .058-.576c-1.809-3.187-4.493-4.862-7.146-6.184zm-.922.447a96.759 96.759 0 0 0-.578 3.72l-.155 1.094-.625-1.209a.504.504 0 0 0-.637-.232l-1.978.823a4.58 4.58 0 0 1 .676-.535 4.797 4.797 0 0 0 1.836-3.845l-.005-.363c.241-.129.473-.271.701-.42l.765.967zm-5.963.578a9.502 9.502 0 0 0 3.494-.668c-.008 1.158-.538 2.261-1.407 2.936-1.1.713-1.654 1.569-2.076 2.538-.42-.927-.973-1.593-2.142-2.577a3.778 3.778 0 0 1-1.36-2.895 9.53 9.53 0 0 0 3.491.666zM22 29.338c0-.68.673-1.277 1.439-1.277a.5.5 0 0 0 .5-.5c0-.921.329-1.535 1.932-1.535l14.137-.011c1.856 0 2.563 1.182 2.828 2.174.501 1.87-.186 4.391-1.412 5.537-.515-.991-1.487-1.676-2.25-1.743L27.34 30.936c-2.261-.173-4.06 1.345-4.324 3.492C22.379 34.27 22 33.77 22 33.047v-3.709zm.049 7.64A2.028 2.028 0 0 1 23 35.68v3.478a2.03 2.03 0 0 1-.951-2.18zM24 39.553V35h-.021l.003-.018c0-1.744 1.291-3.06 3.003-3.06.091 0 .183.003.271.01l11.83 1.046c.412.036 1.36.657 1.629 1.666.04.15.148.273.292.333.078.032.16.04.241.032a2.032 2.032 0 0 1 1.74 2.238 2.031 2.031 0 0 1-1.593 1.755c-.27.059-.442.521-.384.792l.003.205H41c0 4-3.813 8.208-8.5 8.208-4.687 0-8.5-3.966-8.5-8.654zm4.009 8.338-.007.358a4.724 4.724 0 0 0 1.729 3.761c.197.166.373.32.532.468l-1.963-.847a.499.499 0 0 0-.607.172l-.979 1.398-.052-.74a152.83 152.83 0 0 0-.322-4.023l.004-.032.678-1.128c.316.221.643.429.987.613zm-8.929 6.504c1.276-2.285 3.459-3.804 6.317-5.275.129 1.451.192 2.338.267 3.411.042.608.089 1.278.155 2.146a.5.5 0 0 0 .908.249l1.551-2.216 3.27 1.41c.167.344.304.723.453 1.185v3.676a28.028 28.028 0 0 1-1.9-.103c-5.032-.457-9.49-2.282-11.021-4.483zM33 58.983v-3.657c.162-.444.312-.834.47-1.187l2.958-1.233 1.126 2.179a.501.501 0 0 0 .939-.155c.167-1.108.282-1.924.382-2.637.153-1.09.271-1.927.488-3.195 2.28 1.173 4.539 2.662 6.118 5.258-2.708 2.9-7.228 4.548-12.481 4.627z"/><path d="M27.935 42.633a.5.5 0 0 0 .026.706c1.197 1.111 2.769 1.667 4.341 1.667s3.144-.556 4.34-1.667a.5.5 0 0 0-.681-.732c-2.017 1.876-5.3 1.875-7.319 0a.498.498 0 0 0-.707.026zM29 38.516c.827 0 1.5-.673 1.5-1.5s-.673-1.5-1.5-1.5-1.5.673-1.5 1.5.673 1.5 1.5 1.5zm0-2a.5.5 0 1 1-.002 1.002.5.5 0 0 1 .002-1.002zM36 38.516c.827 0 1.5-.673 1.5-1.5s-.673-1.5-1.5-1.5-1.5.673-1.5 1.5.673 1.5 1.5 1.5zm0-2a.5.5 0 1 1-.002 1.002.5.5 0 0 1 .002-1.002zM54.486 21.015c-3.025 0-5.486 2.467-5.486 5.5s2.461 5.5 5.486 5.5c3.04 0 5.514-2.467 5.514-5.5 0-3.032-2.473-5.499-5.514-5.5zm0 10c-2.474 0-4.486-2.019-4.486-4.5s2.013-4.5 4.486-4.5c2.489.001 4.514 2.02 4.514 4.5 0 2.481-2.025 4.5-4.514 4.5z"/><path d="M54.607 24.951c.19 0 .373.063.5.173l.33.285.569-.66-.299-.285c-.201-.175-.707-.272-.707-.328V23h-1v1.174c-1 .204-.969.723-.969 1.333 0 .818.657 1.458 1.476 1.458.502 0 .549.426.549.557 0 .306-.296.555-.665.555a.76.76 0 0 1-.5-.171l-.328-.286-.571.658.296.286c.206.18.712.276.712.331V30h1v-1.146c1-.204.967-.722.967-1.331 0-.828-.609-1.429-1.428-1.429a.574.574 0 0 1-.595-.586c0-.307.293-.557.663-.557zM54 12.515c0-3.032-2.473-5.499-5.514-5.5-3.025 0-5.486 2.467-5.486 5.5s2.461 5.5 5.486 5.5c3.04 0 5.514-2.468 5.514-5.5zm-5.514 4.5c-2.474 0-4.486-2.019-4.486-4.5s2.013-4.5 4.486-4.5c2.489.001 4.514 2.02 4.514 4.5 0 2.481-2.025 4.5-4.514 4.5z"/><path d="M48.607 10.951c.19 0 .373.063.5.173l.33.285.569-.66-.299-.285c-.201-.175-.707-.272-.707-.328V9h-1v1.174c-1 .204-.969.723-.969 1.333 0 .818.657 1.458 1.476 1.458.502 0 .549.426.549.557 0 .306-.296.555-.665.555a.76.76 0 0 1-.5-.171l-.328-.286-.571.658.296.286c.206.18.712.276.712.331V16h1v-1.146c1-.204.967-.722.967-1.331 0-.828-.609-1.429-1.428-1.429a.574.574 0 0 1-.595-.586c0-.307.293-.557.663-.557zM32.459 14.015c3.042 0 5.516-2.467 5.516-5.5 0-3.032-2.474-5.499-5.516-5.5-3.024 0-5.484 2.467-5.484 5.5s2.46 5.5 5.484 5.5zm0-10c2.49.001 4.516 2.02 4.516 4.5 0 2.481-2.026 4.5-4.516 4.5-2.473 0-4.484-2.019-4.484-4.5s2.011-4.5 4.484-4.5z"/><path d="M32.367 10.079a.762.762 0 0 1-.501-.171l-.329-.286-.571.658.31.286c.204.178.724.274.724.329V12h1v-1.146c0-.204.955-.722.955-1.331 0-.828-.617-1.429-1.437-1.429a.572.572 0 0 1-.597-.586c0-.307.295-.557.666-.557a.77.77 0 0 1 .5.175l.33.283.565-.663-.287-.283c-.207-.177-.695-.274-.695-.328V5h-1v1.175c-1 .205-.98.723-.98 1.333a1.45 1.45 0 0 0 1.467 1.458c.503 0 .547.426.547.557 0 .307-.297.556-.667.556zM10.485 21.015c-3.024 0-5.485 2.467-5.485 5.5s2.461 5.5 5.485 5.5c3.041 0 5.515-2.467 5.515-5.5 0-3.032-2.474-5.499-5.515-5.5zm0 10c-2.473 0-4.485-2.019-4.485-4.5s2.012-4.5 4.485-4.5c2.489.001 4.515 2.02 4.515 4.5 0 2.481-2.025 4.5-4.515 4.5z"/><path d="M10.607 24.951c.189 0 .373.063.501.174l.331.284.568-.662-.299-.284c-.206-.177-.708-.273-.708-.328V23h-1v1.174c-1 .205-.969.723-.969 1.333 0 .818.657 1.458 1.475 1.458.502 0 .549.426.549.557 0 .306-.296.555-.666.555a.76.76 0 0 1-.5-.171l-.328-.286-.57.66.297.286c.205.178.712.274.712.329V30h1v-1.146c1-.204.968-.722.968-1.331 0-.828-.611-1.429-1.43-1.429a.574.574 0 0 1-.594-.586c0-.307.293-.557.663-.557zM22 12.515c0-3.032-2.474-5.499-5.515-5.5-3.024 0-5.485 2.467-5.485 5.5s2.461 5.5 5.485 5.5c3.041 0 5.515-2.468 5.515-5.5zm-5.515 4.5c-2.473 0-4.485-2.019-4.485-4.5s2.012-4.5 4.485-4.5c2.489.001 4.515 2.02 4.515 4.5 0 2.481-2.025 4.5-4.515 4.5z"/><path d="M16.607 10.951c.189 0 .373.063.501.174l.331.284.568-.662-.299-.284c-.206-.177-.708-.273-.708-.328V9h-1v1.174c-1 .205-.969.723-.969 1.333 0 .818.657 1.458 1.475 1.458.502 0 .549.426.549.557 0 .306-.296.555-.666.555a.76.76 0 0 1-.5-.171l-.328-.286-.571.658.297.286c.206.18.713.276.713.331V16h1v-1.146c1-.204.968-.722.968-1.331 0-.828-.611-1.429-1.43-1.429a.574.574 0 0 1-.594-.586c0-.307.293-.557.663-.557zM32 15h1v9h-1zM41.163 16.136l.641.767-.683.572-.642-.767zM38 19.015h1v1h-1zM38 23.015h1v1h-1zM38 21.015h1v1h-1zM39.712 17.35l.642.767-.767.641-.642-.767zM44 26h4v1h-4zM23.838 16.134l.682.571-.642.767-.682-.572zM26 23.015h1v1h-1zM26 21.015h1v1h-1zM26 19.015h1v1h-1zM25.288 17.35l.767.64-.642.768-.767-.642zM17 26h4v1h-4z"/></svg>
